# xmcd CD database file
#
# Track frame offsets:
#	150
#	15620
#	32475
#	51162
#	70342
#	93825
#	116775
#	157107
#	175332
#	190025
#
# Disc length: 2936 seconds
#
# Revision: 0
# Processed by: cddbd v1.5PL3 Copyright (c) Steve Scherf et al.
# Submitted via: CDex 1.50beta10
#
DISCID=7f0b760a
DTITLE=Various Artist - はっぴいえんどに捧ぐ
DYEAR=1993
DGENRE=Rock
TTITLE0=あしたてんきになれ - チャカ
TTITLE1=夏なんです - 楠瀬誠志郎
TTITLE2=風来坊 - THE 真心ブラザーズ
TTITLE3=花いちもんめ - 区麗情
TTITLE4=風をあつめて - 塚本晃(HEAVEN)
TTITLE5=しんしんしん - 種ともこ
TTITLE6=かくれんぼ〜はいからはくち - SCANCH
TTITLE7=空色のくれよん - 渡辺満里奈
TTITLE8=12月の雨の日 - GARDEN
TTITLE9=さよならアメリカ さよならニッポン - ズビズバンズ
EXTD=YEAR: 1993
EXTT0=
EXTT1=
EXTT2=
EXTT3=
EXTT4=
EXTT5=
EXTT6=
EXTT7=
EXTT8=
EXTT9=
PLAYORDER=
